<?xml version="1.0" encoding="UTF-8" standalone="no"?>
<svg
   xmlns:dc="http://purl.org/dc/elements/1.1/"
   xmlns:cc="http://creativecommons.org/ns#"
   xmlns:rdf="http://www.w3.org/1999/02/22-rdf-syntax-ns#"
   xmlns:svg="http://www.w3.org/2000/svg"
   xmlns="http://www.w3.org/2000/svg"
   xmlns:sodipodi="http://sodipodi.sourceforge.net/DTD/sodipodi-0.dtd"
   xmlns:inkscape="http://www.inkscape.org/namespaces/inkscape"
   width="20"
   height="34"
   viewBox="0 0 20 34"
   fill="none"
   version="1.1"
   id="svg4"
   sodipodi:docname="online_services.svg"
   inkscape:version="0.92.4 (5da689c313, 2019-01-14)">
  <metadata
     id="metadata10">
    <rdf:RDF>
      <cc:Work
         rdf:about="">
        <dc:format>image/svg+xml</dc:format>
        <dc:type
           rdf:resource="http://purl.org/dc/dcmitype/StillImage" />
      </cc:Work>
    </rdf:RDF>
  </metadata>
  <defs
     id="defs8" />
  <sodipodi:namedview
     pagecolor="#ffffff"
     bordercolor="#666666"
     borderopacity="1"
     objecttolerance="10"
     gridtolerance="10"
     guidetolerance="10"
     inkscape:pageopacity="0"
     inkscape:pageshadow="2"
     inkscape:window-width="1920"
     inkscape:window-height="1017"
     id="namedview6"
     showgrid="false"
     inkscape:zoom="45.26"
     inkscape:cx="7.4441584"
     inkscape:cy="6.2489982"
     inkscape:window-x="-8"
     inkscape:window-y="-8"
     inkscape:window-maximized="1"
     inkscape:current-layer="svg4" />
  <path
     d="M17.6746 0H2.3254C1.04663 0 0 1.03263 0 2.29646V31.7026C0 32.9664 1.04663 34 2.3254 34H17.6746C18.9534 34 20 32.9683 20 31.7035V2.29646C20 1.03263 18.9534 0 17.6746 0ZM7.54476 1.65531H12.4552C12.6107 1.65531 12.7366 1.77966 12.7366 1.93411C12.7366 2.0876 12.6107 2.21194 12.4552 2.21194H7.54476C7.38934 2.21194 7.26343 2.0876 7.26343 1.93411C7.26343 1.77966 7.38934 1.65531 7.54476 1.65531ZM10 32.8518C9.35766 32.8518 8.8373 32.3379 8.8373 31.7026C8.8373 31.0673 9.35766 30.5543 10 30.5543C10.6423 30.5543 11.1627 31.0673 11.1627 31.7026C11.1627 32.3379 10.6423 32.8518 10 32.8518ZM18.3819 29.75H1.61814V3.64189H18.3819V29.75Z"
     fill="#2C36F2"
     id="path2"
     style="fill:#4118c4;fill-opacity:1" />
  <path
     style="stroke-width:0.06629126;stroke-miterlimit:4;stroke-dasharray:none"
     d="M 1.8470653,33.939346 C 1.4709268,33.859392 1.0822723,33.66417 0.78288251,33.404804 0.51084441,33.169134 0.25270169,32.782474 0.13291835,32.431253 0.00481431,32.055635 0.01300712,32.75833 0.01300712,22.146496 v -9.75297 H 0.80850225 1.6039974 v 8.684156 8.684155 h 8.3968926 8.396893 v -8.684155 -8.684156 h 0.795496 0.795495 v 9.75297 c 0,10.775158 0.01146,9.929728 -0.140036,10.333048 -0.287192,0.764591 -0.94411,1.316332 -1.751098,1.470734 -0.144876,0.02772 -1.252831,0.03189 -8.1152663,0.03055 -7.5768169,-0.0015 -7.9562432,-0.0034 -8.1353084,-0.04148 z m 8.4489467,-1.118923 c 0.506506,-0.130592 0.877163,-0.604933 0.875697,-1.120654 -10e-4,-0.368864 -0.219088,-0.766147 -0.52997,-0.965639 -0.377419,-0.242189 -0.9020857,-0.243933 -1.2722094,-0.0042 -0.6276448,0.406482 -0.7222935,1.25987 -0.1977763,1.783225 0.2247913,0.224293 0.496355,0.337841 0.8148991,0.34073 0.095473,8.66e-4 0.2346846,-0.01418 0.3093596,-0.03343 z"
     id="path12"
     inkscape:connector-curvature="0" />
  <path
     style="stroke-width:0.06629126;stroke-miterlimit:4;stroke-dasharray:none"
     d="M 1.8470653,33.939346 C 1.4709268,33.859392 1.0822723,33.66417 0.78288251,33.404804 0.51084441,33.169134 0.25270169,32.782474 0.13291835,32.431253 0.00481431,32.055635 0.01300712,32.75833 0.01300712,22.146496 v -9.75297 H 0.80850225 1.6039974 v 8.684156 8.684155 h 8.3968926 8.396893 v -8.684155 -8.684156 h 0.795496 0.795495 v 9.75297 c 0,10.775158 0.01146,9.929728 -0.140036,10.333048 -0.287192,0.764591 -0.94411,1.316332 -1.751098,1.470734 -0.144876,0.02772 -1.252831,0.03189 -8.1152663,0.03055 -7.5768169,-0.0015 -7.9562432,-0.0034 -8.1353084,-0.04148 z m 8.4489467,-1.118923 c 0.506506,-0.130592 0.877163,-0.604933 0.875697,-1.120654 -10e-4,-0.368864 -0.219088,-0.766147 -0.52997,-0.965639 -0.377419,-0.242189 -0.9020857,-0.243933 -1.2722094,-0.0042 -0.6276448,0.406482 -0.7222935,1.25987 -0.1977763,1.783225 0.2247913,0.224293 0.496355,0.337841 0.8148991,0.34073 0.095473,8.66e-4 0.2346846,-0.01418 0.3093596,-0.03343 z"
     id="path14"
     inkscape:connector-curvature="0" />
  <path
     style="stroke-width:0.06629126;stroke-miterlimit:4;stroke-dasharray:none"
     d="M 1.8470653,33.939346 C 1.4709268,33.859392 1.0822723,33.66417 0.78288251,33.404804 0.51084441,33.169134 0.25270169,32.782474 0.13291835,32.431253 0.00481431,32.055635 0.01300712,32.75833 0.01300712,22.146496 v -9.75297 H 0.80850225 1.6039974 v 8.684156 8.684155 h 8.3968926 8.396893 v -8.684155 -8.684156 h 0.795496 0.795495 v 9.75297 c 0,10.775158 0.01146,9.929728 -0.140036,10.333048 -0.287192,0.764591 -0.94411,1.316332 -1.751098,1.470734 -0.144876,0.02772 -1.252831,0.03189 -8.1152663,0.03055 -7.5768169,-0.0015 -7.9562432,-0.0034 -8.1353084,-0.04148 z m 8.4489467,-1.118923 c 0.506506,-0.130592 0.877163,-0.604933 0.875697,-1.120654 -10e-4,-0.368864 -0.219088,-0.766147 -0.52997,-0.965639 -0.377419,-0.242189 -0.9020857,-0.243933 -1.2722094,-0.0042 -0.6276448,0.406482 -0.7222935,1.25987 -0.1977763,1.783225 0.2247913,0.224293 0.496355,0.337841 0.8148991,0.34073 0.095473,8.66e-4 0.2346846,-0.01418 0.3093596,-0.03343 z"
     id="path16"
     inkscape:connector-curvature="0" />
  <path
     style="stroke-width:0.06629126;stroke-miterlimit:4;stroke-dasharray:none"
     d="M 1.8470653,33.939346 C 1.4709268,33.859392 1.0822723,33.66417 0.78288251,33.404804 0.51084441,33.169134 0.25270169,32.782474 0.13291835,32.431253 0.00481431,32.055635 0.01300712,32.75833 0.01300712,22.146496 v -9.75297 H 0.80850225 1.6039974 v 8.684156 8.684155 h 8.3968926 8.396893 v -8.684155 -8.684156 h 0.795496 0.795495 v 9.75297 c 0,10.775158 0.01146,9.929728 -0.140036,10.333048 -0.287192,0.764591 -0.94411,1.316332 -1.751098,1.470734 -0.144876,0.02772 -1.252831,0.03189 -8.1152663,0.03055 -7.5768169,-0.0015 -7.9562432,-0.0034 -8.1353084,-0.04148 z m 8.4489467,-1.118923 c 0.506506,-0.130592 0.877163,-0.604933 0.875697,-1.120654 -10e-4,-0.368864 -0.219088,-0.766147 -0.52997,-0.965639 -0.377419,-0.242189 -0.9020857,-0.243933 -1.2722094,-0.0042 -0.6276448,0.406482 -0.7222935,1.25987 -0.1977763,1.783225 0.2247913,0.224293 0.496355,0.337841 0.8148991,0.34073 0.095473,8.66e-4 0.2346846,-0.01418 0.3093596,-0.03343 z"
     id="path18"
     inkscape:connector-curvature="0" />
  <path
     style="stroke-width:0.06629126;stroke-miterlimit:4;stroke-dasharray:none"
     d="M 1.8470653,33.939346 C 1.4709268,33.859392 1.0822723,33.66417 0.78288251,33.404804 0.51084441,33.169134 0.25270169,32.782474 0.13291835,32.431253 0.00481431,32.055635 0.01300712,32.75833 0.01300712,22.146496 v -9.75297 H 0.80850225 1.6039974 v 8.684156 8.684155 h 8.3968926 8.396893 v -8.684155 -8.684156 h 0.795496 0.795495 v 9.75297 c 0,10.775158 0.01146,9.929728 -0.140036,10.333048 -0.287192,0.764591 -0.94411,1.316332 -1.751098,1.470734 -0.144876,0.02772 -1.252831,0.03189 -8.1152663,0.03055 -7.5768169,-0.0015 -7.9562432,-0.0034 -8.1353084,-0.04148 z m 8.4489467,-1.118923 c 0.506506,-0.130592 0.877163,-0.604933 0.875697,-1.120654 -10e-4,-0.368864 -0.219088,-0.766147 -0.52997,-0.965639 -0.377419,-0.242189 -0.9020857,-0.243933 -1.2722094,-0.0042 -0.6276448,0.406482 -0.7222935,1.25987 -0.1977763,1.783225 0.2247913,0.224293 0.496355,0.337841 0.8148991,0.34073 0.095473,8.66e-4 0.2346846,-0.01418 0.3093596,-0.03343 z"
     id="path20"
     inkscape:connector-curvature="0" />
  <path
     style="stroke-width:0.06629126;stroke-miterlimit:4;stroke-dasharray:none"
     d="m 1.6260945,21.066633 v -8.673107 h 8.3747955 8.374796 v 8.673107 8.673107 H 10.00089 1.6260945 Z"
     id="path22"
     inkscape:connector-curvature="0" />
  <path
     style="stroke-width:0.06629126;stroke-miterlimit:4;stroke-dasharray:none"
     d="m 1.6260945,21.066633 v -8.673107 h 8.3747955 8.374796 v 8.673107 8.673107 H 10.00089 1.6260945 Z"
     id="path24"
     inkscape:connector-curvature="0" />
  <path
     style="stroke-width:0.06629126;stroke-miterlimit:4;stroke-dasharray:none"
     d="m 1.6260945,21.066633 v -8.673107 h 8.3747955 8.374796 v 8.673107 8.673107 H 10.00089 1.6260945 Z"
     id="path26"
     inkscape:connector-curvature="0" />
  <path
     style="stroke-width:0.06629126;stroke-miterlimit:4;stroke-dasharray:none"
     d="m 1.6260945,21.066633 v -8.673107 h 8.3747955 8.374796 v 8.673107 8.673107 H 10.00089 1.6260945 Z"
     id="path28"
     inkscape:connector-curvature="0" />
  <path
     style="stroke-width:0.06629126;stroke-miterlimit:4;stroke-dasharray:none"
     d="M 1.8470653,33.939346 C 1.4709268,33.859392 1.0822723,33.66417 0.78288251,33.404804 0.51084441,33.169134 0.25270169,32.782474 0.13291835,32.431253 0.00481431,32.055635 0.01300712,32.75833 0.01300712,22.146496 v -9.75297 H 0.80850225 1.6039974 v 8.684156 8.684155 h 8.3968926 8.396893 v -8.684155 -8.684156 h 0.795496 0.795495 v 9.75297 c 0,10.775158 0.01146,9.929728 -0.140036,10.333048 -0.287192,0.764591 -0.94411,1.316332 -1.751098,1.470734 -0.144876,0.02772 -1.252831,0.03189 -8.1152663,0.03055 -7.5768169,-0.0015 -7.9562432,-0.0034 -8.1353084,-0.04148 z m 8.4489467,-1.118923 c 0.506506,-0.130592 0.877163,-0.604933 0.875697,-1.120654 -10e-4,-0.368864 -0.219088,-0.766147 -0.52997,-0.965639 -0.377419,-0.242189 -0.9020857,-0.243933 -1.2722094,-0.0042 -0.6276448,0.406482 -0.7222935,1.25987 -0.1977763,1.783225 0.2247913,0.224293 0.496355,0.337841 0.8148991,0.34073 0.095473,8.66e-4 0.2346846,-0.01418 0.3093596,-0.03343 z"
     id="path30"
     inkscape:connector-curvature="0" />
</svg>
