<?xml version="1.0" encoding="UTF-8" standalone="no"?>
<svg
   xmlns:dc="http://purl.org/dc/elements/1.1/"
   xmlns:cc="http://creativecommons.org/ns#"
   xmlns:rdf="http://www.w3.org/1999/02/22-rdf-syntax-ns#"
   xmlns:svg="http://www.w3.org/2000/svg"
   xmlns="http://www.w3.org/2000/svg"
   xmlns:sodipodi="http://sodipodi.sourceforge.net/DTD/sodipodi-0.dtd"
   xmlns:inkscape="http://www.inkscape.org/namespaces/inkscape"
   width="37"
   height="42"
   viewBox="0 0 37 42"
   fill="none"
   version="1.1"
   id="svg16"
   sodipodi:docname="location.svg"
   inkscape:version="0.92.4 (5da689c313, 2019-01-14)">
  <metadata
     id="metadata22">
    <rdf:RDF>
      <cc:Work
         rdf:about="">
        <dc:format>image/svg+xml</dc:format>
        <dc:type
           rdf:resource="http://purl.org/dc/dcmitype/StillImage" />
      </cc:Work>
    </rdf:RDF>
  </metadata>
  <defs
     id="defs20" />
  <sodipodi:namedview
     pagecolor="#ffffff"
     bordercolor="#666666"
     borderopacity="1"
     objecttolerance="10"
     gridtolerance="10"
     guidetolerance="10"
     inkscape:pageopacity="0"
     inkscape:pageshadow="2"
     inkscape:window-width="1920"
     inkscape:window-height="1017"
     id="namedview18"
     showgrid="false"
     inkscape:zoom="31.786133"
     inkscape:cx="12.888514"
     inkscape:cy="20.072146"
     inkscape:window-x="-8"
     inkscape:window-y="-8"
     inkscape:window-maximized="1"
     inkscape:current-layer="svg16" />
  <path
     d="M30.8744 29.2842L18.5 41L6.12556 29.2842C3.67816 26.967 2.01147 24.0148 1.33625 20.8008C0.661026 17.5869 1.0076 14.2555 2.33214 11.228C3.65668 8.20049 5.89969 5.61285 8.77755 3.79229C11.6554 1.97172 15.0388 1 18.5 1C21.9612 1 25.3446 1.97172 28.2225 3.79229C31.1003 5.61285 33.3433 8.20049 34.6679 11.228C35.9924 14.2555 36.339 17.5869 35.6637 20.8008C34.9885 24.0148 33.3218 26.967 30.8744 29.2842Z"
     fill="#2C36F2"
     id="path2"
     style="fill:#9f25c8;fill-opacity:1" />
  <path
     d="M19.5179 10.2308H17.8214L10.3564 22.4884H12.562L13.5799 20.7373L19.5179 10.2308Z"
     fill="#2C36F2"
     id="path4"
     style="fill:#9f25a5;fill-opacity:1" />
  <path
     d="M11.3744 24.5897H25.6256L19.5179 13.733L18.5 15.4841L21.5538 20.7373L22.5718 22.4884H12.562H10.3564L11.3744 24.5897Z"
     fill="#2C36F2"
     id="path6"
     style="fill:#9f25a5;fill-opacity:1" />
  <path
     d="M22.5718 22.4884L21.5538 20.7373H15.4462H13.5799L12.562 22.4884H22.5718Z"
     fill="#2C36F2"
     id="path8"
     style="fill:#9f25a5;fill-opacity:1" />
  <path
     d="M25.6256 24.5897L26.6436 22.4884L19.5179 10.2308L13.5799 20.7373H15.4462L18.5 15.4841L19.5179 13.733L25.6256 24.5897Z"
     fill="#2C36F2"
     id="path10"
     style="fill:#9f25a5;fill-opacity:1" />
  <path
     d="M18.5 15.4841L15.4462 20.7373H21.5538L18.5 15.4841Z"
     fill="#2C36F2"
     id="path12"
     style="fill:#9f25a5;fill-opacity:1" />
  <path
     d="M25.6256 24.5897H11.3744L10.3564 22.4884M25.6256 24.5897L26.6436 22.4884L19.5179 10.2308M25.6256 24.5897L19.5179 13.733L18.5 15.4841M19.5179 10.2308H17.8214L10.3564 22.4884M19.5179 10.2308L13.5799 20.7373M10.3564 22.4884H12.562M18.5 15.4841L15.4462 20.7373M18.5 15.4841L21.5538 20.7373M15.4462 20.7373H21.5538M15.4462 20.7373H13.5799M21.5538 20.7373L22.5718 22.4884H12.562M13.5799 20.7373L12.562 22.4884M30.8744 29.2842L18.5 41L6.12556 29.2842C3.67816 26.967 2.01147 24.0148 1.33625 20.8008C0.661026 17.5869 1.0076 14.2555 2.33214 11.228C3.65668 8.20049 5.89969 5.61285 8.77755 3.79229C11.6554 1.97172 15.0388 1 18.5 1C21.9612 1 25.3446 1.97172 28.2225 3.79229C31.1003 5.61285 33.3433 8.20049 34.6679 11.228C35.9924 14.2555 36.339 17.5869 35.6637 20.8008C34.9885 24.0148 33.3218 26.967 30.8744 29.2842Z"
     stroke="#F6F7FF"
     stroke-width="0.5"
     id="path14" />
</svg>
